/* XPM */
static char *result[] = {
/* columns rows colors chars-per-pixel */
"48 48 219 2 ",
"   c #9F1001",
".  c #AD0E03",
"X  c #AB1401",
"o  c #AF1B01",
"O  c #BD1D01",
"+  c #B21503",
"@  c #C51503",
"#  c #C51D02",
"$  c #CB1705",
"%  c #DD1E06",
"&  c #D81807",
"*  c #F50509",
"=  c #F6090D",
"-  c #EC1B02",
";  c #E0160A",
":  c #E9190C",
">  c #F4180A",
",  c #F60E11",
"<  c #F61314",
"1  c #F71C1C",
"2  c #F51B15",
"3  c #C32302",
"4  c #CC2302",
"5  c #C92B01",
"6  c #D32402",
"7  c #DC2504",
"8  c #D92C02",
"9  c #DB3301",
"0  c #DF3A01",
"q  c #E42507",
"w  c #EC2205",
"e  c #E52C05",
"r  c #EB2D04",
"t  c #EE210B",
"y  c #E02509",
"u  c #FB2B0E",
"i  c #F7240B",
"p  c #E53404",
"a  c #ED3405",
"s  c #E33A01",
"d  c #ED3A02",
"f  c #EC380A",
"g  c #F33404",
"h  c #F23A04",
"j  c #FD3B03",
"k  c #F4330A",
"l  c #FB330D",
"z  c #F93B0B",
"x  c #F73807",
"c  c #FB2C12",
"v  c #F8311D",
"b  c #F72323",
"n  c #F72B2F",
"m  c #F8292A",
"M  c #F83A2C",
"N  c #F83D37",
"B  c #EC4302",
"V  c #EC4808",
"C  c #F44203",
"Z  c #FC4405",
"A  c #F44C03",
"S  c #FC4A03",
"D  c #FC430B",
"F  c #FD4D0C",
"G  c #F4480B",
"H  c #EF5201",
"J  c #F45303",
"K  c #FB5304",
"L  c #F75D05",
"P  c #FB5B04",
"I  c #F55508",
"U  c #FC530B",
"Y  c #FE5C0C",
"T  c #F7590B",
"R  c #FA4515",
"E  c #FE5E14",
"W  c #FB5712",
"Q  c #EE5C19",
"!  c #F76103",
"~  c #FC6404",
"^  c #FC6B05",
"/  c #FD640B",
"(  c #FC6B0B",
")  c #F7660F",
"_  c #FE7205",
"`  c #FE7B04",
"'  c #FD740B",
"]  c #FE7D0C",
"[  c #FD6513",
"{  c #F66C12",
"}  c #FD6B13",
"|  c #FE6C1C",
" . c #FE611D",
".. c #FD7315",
"X. c #FE7D13",
"o. c #FD741A",
"O. c #FF7E1A",
"+. c #F94B3D",
"@. c #F84738",
"#. c #F95334",
"$. c #FE6D23",
"%. c #FE692B",
"&. c #FC7323",
"*. c #FD7C23",
"=. c #FB683B",
"-. c #FB7D39",
";. c #F94C45",
":. c #FA584A",
">. c #F95758",
",. c #FA634A",
"<. c #FA7D4F",
"1. c #FA655D",
"2. c #FB7958",
"3. c #FB7962",
"4. c #FA7B70",
"5. c #FF8305",
"6. c #FF820A",
"7. c #FF8B0B",
"8. c #FF930B",
"9. c #FF990B",
"0. c #FE8412",
"q. c #FF8A15",
"w. c #FF841B",
"e. c #FF8A1B",
"r. c #FF9412",
"t. c #FF9914",
"y. c #FF931B",
"u. c #FF9C1C",
"i. c #FFA10D",
"p. c #FFA315",
"a. c #FFA31C",
"s. c #FFAB1B",
"d. c #FE8124",
"f. c #FE8A24",
"g. c #FE852D",
"h. c #FE8B2C",
"j. c #FF9A22",
"k. c #FF962C",
"l. c #FF9D2D",
"z. c #FF9726",
"x. c #FF8D3C",
"c. c #FC8036",
"v. c #FE9334",
"b. c #FF9F37",
"n. c #FF923D",
"m. c #FF9C39",
"M. c #FFA324",
"N. c #FFA42A",
"B. c #FFAB2A",
"V. c #FFAC27",
"C. c #FFB42C",
"Z. c #FFB026",
"A. c #FFA533",
"S. c #FFAD36",
"D. c #FFA439",
"F. c #FFAC3A",
"G. c #FFB034",
"H. c #FFB239",
"J. c #FFBB3B",
"K. c #FFBE35",
"L. c #FFC51C",
"P. c #FFCD26",
"I. c #FFC636",
"U. c #FD8A44",
"Y. c #FD9748",
"T. c #FC8B59",
"R. c #FC955A",
"E. c #FFA442",
"W. c #FDA74D",
"Q. c #FEB344",
"!. c #FFBC42",
"~. c #FFAA5A",
"^. c #FFBC5B",
"/. c #FFB854",
"(. c #FB8767",
"). c #FC9776",
"_. c #FC8E6C",
"`. c #FDA667",
"'. c #FEB968",
"]. c #FCA675",
"[. c #FDBA7F",
"{. c #FFC243",
"}. c #FFC941",
"|. c #FFC44E",
" X c #FFC84F",
".X c #FFC352",
"XX c #FFC25D",
"oX c #FFCF5F",
"OX c #FFC952",
"+X c #FFD453",
"@X c #FFD45C",
"#X c #FFDA5C",
"$X c #FFE455",
"%X c #FFC362",
"&X c #FFCB61",
"*X c #FFD96D",
"=X c #FEC776",
"-X c #FFD572",
";X c #FFDA72",
":X c #FFD779",
">X c #FFE36B",
",X c #FFE563",
"<X c #FFE37C",
"1X c #FC9C84",
"2X c #FB8E83",
"3X c #FCA084",
"4X c #FDB781",
"5X c #FEC588",
"6X c #FECB8E",
"7X c #FFD482",
"8X c #FFDC88",
"9X c #FEDE94",
"0X c #FEC692",
"qX c #FFE88C",
"wX c #FFE794",
"eX c #FFF09A",
"rX c #FED2B3",
"tX c #FFF0C3",
"yX c None",
/* pixels */
"yXyXyXyXyXyXyXyXyXyXyXyXyXyXyXyXyXyXyXyXyXyXyXyXyXyXyXyXyXyXyXyXyXyXyXyXyXyXyXyXyXyXyXyXyXyXyXyX",
"yXyXyXyXyXyXyXyXyXyXyXyXyXyXyXyXyXyXyXyXyXyXyXyXyXyXyXyXyXyXyXyXyXyXyXyXyXyXyXyXyXyXyXyXyXyXyXyX",
"yXyXyXyXyXyXyXyXyXyXyXyXyXyXyXyXyXyXyXyXyXyXyXyXyXyXyXyXyXyXyXyXyXyXyXyXyXyXyXyXyXyXyXyXyXyXyXyX",
"yXyXyXyXyXyXyXyXyXyXyXyXyXyXyXyXyXyXyXyXyXyXyXyXyXyXyXyXyXyXyXyXyXyXyXyXyXyXyXyXyXyXyXyXyXyXyXyX",
"yXyXyXyXyXyXyXyXyXyXyXyXyXyXyXyXyXyXyXyXyXyXyXyXyXyXyXyXyXyXyXyXyXyXyXyXyXyXyXyXyXyXyXyXyXyXyXyX",
"yXyXyXyXyXyXyXyXyXyXyXyXyXyXyXyXyXyXyXyXyXyXyXyXyXyXyXyXyXyXyXyXyXyXyXyXyXyXyXyXyXyXyXyXyXyXyXyX",
"yXyXyXyXyXyXyXyXyXyXyXyXyXyXyXyXyXyXyXyXyXyXyXyXyXyXyXyXyXyXyXyXyXyXyXyXyXyXyXyXyXyXyXyXyXyXyXyX",
"yXyXyXyXyXyXyXyXyXyXyXyXyXyXyXyXyXyXyXyXyXyXyXyXyXyXyXyXyXyXyXyXyXyXyXyXyXyXyXyXyXyXyXyXyXyXyXyX",
"yXyXyXyXyXyXyXyXyXyXyXyXyXyXyXyXyXyXyXyX* = * * * * * * yXyXyXyXyXyXyXyXyXyXyXyXyXyXyXyXyXyXyXyX",
"yXyXyXyXyXyXyXyXyXyXyXyXyXyXyXyXyX* = * m :.(.).1X2X1.b v Y.v yXyXyXyXyXyXyXyXyXyXyXyXyXyXyXyXyX",
"yXyXyXyXyXyXyXyXyXyXyXyXyXyXyX* b >.3X7XqX-XE.I.L.P.M.m.Q.|.N = , yXyXyXyXyXyXyXyXyXyXyXyXyXyXyX",
"yXyXyXyXyXyXyXyXyXyXyXyXyX* * ;.rXwXN.+X:X'.Y./ t.Z.s.K.7X*X>X0XN * * yXyXyXyXyXyXyXyXyXyXyXyXyX",
"yXyXyXyXyXyXyXyXyXyXyXyX* = T.wX-XM.!.X.U z -.o.W k.z..Xa.N.B.XX-X(.= = yXyXyXyXyXyXyXyXyXyXyXyX",
"yXyXyXyXyXyXyXyXyXyXyX* , ].&XI.J.r.8.~ e e D U.h d ..z.t.' U ..S.&XU.< * yXyXyXyXyXyXyXyXyXyXyX",
"yXyXyXyXyXyXyXyXyXyX* = `.|.J.C.I.a.k.^ B 8 Y *.V C o.Y / F c u k d.%XU., * yXyXyXyXyXyXyXyXyXyX",
"yXyXyXyXyXyXyXyXyXyX* ).H.O.L ' 9.Z.] ! A 9 A q.O.} [ k x w 7 ; 7 h f.%X).* yXyXyXyXyXyXyXyXyXyX",
"yXyXyXyXyXyXyXyXyX* #.*XI.I 9 B ^ O.A d s 8 J ' S x l z D a 7 r y 7 G $.`.;.* yXyXyXyXyXyXyXyXyX",
"yXyXyXyXyXyXyXyXyXm /.@Xq._ ~ L 5.~ A 9 A s 6 D c & y t l l z $.[ } z W [ T.= yXyXyXyXyXyXyXyXyX",
"yXyXyXyXyXyXyXyX= 2.*X#X7.&./ ~ ~ L J ^ -.V g F z r $ $ t t F x.n.d.g.W E %.=.* yXyXyXyXyXyXyXyX",
"yXyXyXyXyXyXyXyX= '.,X#Xr.{ B B J ( ] m.m.y.Y W / I G p p G _ j.o.D } h.E O.'.* yXyXyXyXyXyXyXyX",
"yXyXyXyXyXyXyX* 1 -X|.}.N.I h A J ' ~.l.F.A.X.*./ o.O.( ' o.7.a./ l G E.) Z..Xn * yXyXyXyXyXyXyX",
"yXyXyXyXyXyXyX* :.#Xy.N.A.( Z K L ) 0.S.F.p.o.Y e 3 B ^ ~ S 6.a.Z - s v.J u.+X4.= yXyXyXyXyXyXyX",
"yXyXyXyXyXyXyX* T.OXd.h.] ' P ~ S j ( ~ 7.5.D > & 5 9 3 h K ` p.S > E O.B C Q.].= yXyXyXyXyXyXyX",
"yXyXyXyXyXyXyX= R.H.W.X.6.5.' ] S j g.h B Z u & 4 9 X   h ~ y.t.S j o...A K v.R.* yXyXyXyXyXyXyX",
"yXyXyXyXyXyXyX* `.h.~.w.7.9.8.7.Z g f.p 6 & , $ # o X O ..~ _ u.7.5.^ ( ( {.Q.-.* yXyXyXyXyXyXyX",
"yXyXyXyXyXyXyX* 1X&.h.E 6.7.8._ j a T ) @ , & $ # 3 4 p ' J ` N.` ~ ^ q.S.s.8X-.= yXyXyXyXyXyXyX",
"yXyXyXyXyXyXyX* (.%.R D ' t.r.~ g 7 B o.e : ; . O 3 s L L 4 J B.5.^ ^ ` 6.( 7XU.* yXyXyXyXyXyXyX",
"yXyXyXyXyXyXyX* :.%.R F / s.l.q.K r J ~ g 2 > . 4 s s H J 6 J t._ ^ ^ ' ] I.8X@.* yXyXyXyXyXyXyX",
"yXyXyXyXyXyXyX< @.E.| U } t.7.u.k.P ^ _ K D u @ O 5 9 ! A $ a ~ t.p.6.L M.I.7X= yXyXyXyXyXyXyXyX",
"yXyXyXyXyXyXyXyX, [.D.h.B Y ~ 0.u.' ^ ^ S [ o.a @ 9 { ~ C - - j / ] O.0.^.N.].* yXyXyXyXyXyXyXyX",
"yXyXyXyXyXyXyXyX* @.%Xm.*.e K 5.8.M.8.' C P E O.o.J ! P S w > u u Z 6.G.H.OX+.* yXyXyXyXyXyXyXyX",
"yXyXyXyXyXyXyXyXyX= =.f.E.T S ~ 8.7.` ~ C [ ( } ( J 5.7.' U l > > i Y B.&X].* yXyXyXyXyXyXyXyXyX",
"yXyXyXyXyXyXyXyXyX* v E *.~.[ / 0.P ~ / A ' t.a.m.k.m.t.S.e.&.w > c o.@X9X1 * yXyXyXyXyXyXyXyXyX",
"yXyXyXyXyXyXyXyXyXyX* M o.J.H.` 6.J J / ( Y y.] 6.h.! Y x.m.h.h $ f u.:X1.* yXyXyXyXyXyXyXyXyXyX",
"yXyXyXyXyXyXyXyXyXyXyX* =.<X|.l.e._ / k F 6.e.' w.O.~ Y O.Q.t.V 6 Q &X3.* yXyXyXyXyXyXyXyXyXyXyX",
"yXyXyXyXyXyXyXyXyXyXyXyX* 6XtX=X!.M.T k ' p.j./ u.' w.n.g.7.u.J f.W.<.< * yXyXyXyXyXyXyXyXyXyXyX",
"yXyXyXyXyXyXyXyXyXyXyXyX2 5X3.5X<XK.} } M.}.a./ z.f.f...A ] %X;X'.;.M = yXyXyXyXyXyXyXyXyXyXyXyX",
"yXyXyXyXyXyXyXyXyXyXyXyX<.#.= = :.4XS.G.H.e.X.q.9..XX.( v.'.6X,.= = yXyXyXyXyXyXyXyXyXyXyXyXyXyX",
"yXyXyXyXyXyXyXyXyXyXyXyXyX#.yX* * * :.).Y.U.v.$XeXqX}.[.).+.* * * yXyXyXyXyXyXyXyXyXyXyXyXyXyXyX",
"yXyXyXyXyXyXyXyXyXyXyXyXyXyXyXyXyXyX* * * * < n n < * * * * * yXyXyXyXyXyXyXyXyXyXyXyXyXyXyXyXyX",
"yXyXyXyXyXyXyXyXyXyXyXyXyXyXyXyXyXyXyXyXyX* * * * * * yXyXyXyXyXyXyXyXyXyXyXyXyXyXyXyXyXyXyXyXyX",
"yXyXyXyXyXyXyXyXyXyXyXyXyXyXyXyXyXyXyXyXyXyXyXyXyXyXyXyXyXyXyXyXyXyXyXyXyXyXyXyXyXyXyXyXyXyXyXyX",
"yXyXyXyXyXyXyXyXyXyXyXyXyXyXyXyXyXyXyXyXyXyXyXyXyXyXyXyXyXyXyXyXyXyXyXyXyXyXyXyXyXyXyXyXyXyXyXyX",
"yXyXyXyXyXyXyXyXyXyXyXyXyXyXyXyXyXyXyXyXyXyXyXyXyXyXyXyXyXyXyXyXyXyXyXyXyXyXyXyXyXyXyXyXyXyXyXyX",
"yXyXyXyXyXyXyXyXyXyXyXyXyXyXyXyXyXyXyXyXyXyXyXyXyXyXyXyXyXyXyXyXyXyXyXyXyXyXyXyXyXyXyXyXyXyXyXyX",
"yXyXyXyXyXyXyXyXyXyXyXyXyXyXyXyXyXyXyXyXyXyXyXyXyXyXyXyXyXyXyXyXyXyXyXyXyXyXyXyXyXyXyXyXyXyXyXyX",
"yXyXyXyXyXyXyXyXyXyXyXyXyXyXyXyXyXyXyXyXyXyXyXyXyXyXyXyXyXyXyXyXyXyXyXyXyXyXyXyXyXyXyXyXyXyXyXyX",
"yXyXyXyXyXyXyXyXyXyXyXyXyXyXyXyXyXyXyXyXyXyXyXyXyXyXyXyXyXyXyXyXyXyXyXyXyXyXyXyXyXyXyXyXyXyXyXyX"
};
