/* XPM */
static char *result[] = {
/* columns rows colors chars-per-pixel */
"48 48 144 2 ",
"   c #EE3E0F",
".  c #F24608",
"X  c #F44C09",
"o  c #EF541A",
"O  c #F35818",
"+  c #FC760D",
"@  c #F56214",
"#  c #F76814",
"$  c #FA6D11",
"%  c #F76318",
"&  c #F66B1D",
"*  c #F87016",
"=  c #F7781D",
"-  c #FA7D1B",
";  c #F26F24",
":  c #F1672E",
">  c #F67424",
",  c #F87720",
"<  c #F97E22",
"1  c #F5712B",
"2  c #F77C2B",
"3  c #F36F36",
"4  c #F27336",
"5  c #F57D31",
"6  c #F37341",
"7  c #FC851C",
"8  c #FC8C1B",
"9  c #FE9213",
"0  c #FE931A",
"q  c #FF9E1F",
"w  c #FA8423",
"e  c #F6812C",
"r  c #F98629",
"t  c #F78928",
"y  c #F9882E",
"u  c #FC9424",
"i  c #FD9A22",
"p  c #FB942B",
"a  c #FD9B2C",
"s  c #F78135",
"d  c #FA8E31",
"f  c #F98838",
"g  c #FB9333",
"h  c #FB9E34",
"j  c #FA9539",
"k  c #FB9E3E",
"l  c #FEA225",
"z  c #FEA32C",
"x  c #FEA82E",
"c  c #FCA235",
"v  c #FDAB34",
"b  c #FDAD3B",
"n  c #FEB33D",
"m  c #F78640",
"M  c #F2854B",
"N  c #FB9D42",
"B  c #F79B4B",
"V  c #F68E50",
"C  c #F89C54",
"Z  c #F6A044",
"A  c #FBA447",
"S  c #FCAB43",
"D  c #FAA44C",
"F  c #FBAA48",
"G  c #FEB542",
"H  c #FEB843",
"J  c #FDB349",
"K  c #FDBC4B",
"L  c #F9A156",
"P  c #FCAD51",
"I  c #F6A75B",
"U  c #FCB454",
"Y  c #FDBD54",
"T  c #FBB058",
"R  c #FDBF5D",
"E  c #FBAA62",
"W  c #F7AA6D",
"Q  c #FCB465",
"!  c #FBB862",
"~  c #FDB66B",
"^  c #FBBE6D",
"/  c #FABE76",
"(  c #FBB778",
")  c #FEC14C",
"_  c #FEC355",
"`  c #FDC35A",
"'  c #FEC95B",
"]  c #FDC564",
"[  c #FECB62",
"{  c #FDC46C",
"}  c #FDCB6B",
"|  c #FED367",
" . c #FDD36D",
".. c #FDCA73",
"X. c #FBC67E",
"o. c #FCC97C",
"O. c #FDD274",
"+. c #FEDA75",
"@. c #FDD37C",
"#. c #FEDD7B",
"$. c #FFE17D",
"%. c #F9B684",
"&. c #FAC585",
"*. c #FCCE83",
"=. c #FDD285",
"-. c #FDDC84",
";. c #FED98B",
":. c #FDDC95",
">. c #FBD299",
",. c #FDDC98",
"<. c #FEE384",
"1. c #FEE48A",
"2. c #FEE98E",
"3. c #FEE492",
"4. c #FEEA93",
"5. c #FDE49B",
"6. c #FEEB9C",
"7. c #FBD0A5",
"8. c #FEDBAA",
"9. c #FDE6A4",
"0. c #FEECA4",
"q. c #FEE7AA",
"w. c #FEEBAC",
"e. c #FFF1A3",
"r. c #FFF2AA",
"t. c #FEE7B0",
"y. c #FDECB4",
"u. c #FEF4B3",
"i. c #FEF2BB",
"p. c #FFF9BD",
"a. c #FEEFC4",
"s. c #FCEECF",
"d. c #FEF5C2",
"f. c #FFF9C4",
"g. c #FEF7CB",
"h. c #FFFACB",
"j. c #FEF3D6",
"k. c #FFFBD4",
"l. c #FFFCDC",
"z. c #FFFDE5",
"x. c #FFFEEB",
"c. c #FFFEF3",
"v. c #FFFFFC",
"b. c None",
/* pixels */
"b.b.b.b.b.b.b.b.b.b.b.b.b.b.b.b.b.b.b.b.b.b.b.b.b.b.b.b.b.b.b.b.b.b.b.b.b.b.b.b.b.b.b.b.b.b.b.b.",
"b.b.b.b.b.b.b.b.b.b.b.b.b.b.b.b.b.b.b.b.b.b.b.b.b.b.b.b.b.b.b.b.b.b.b.b.b.b.b.b.b.b.b.b.b.b.b.b.",
"b.b.b.b.b.b.b.b.b.b.b.b.b.b.b.b.b.b.b.b.b.b.b.b.b.b.b.b.b.b.b.b.b.b.b.b.b.b.b.b.b.b.b.b.b.b.b.b.",
"b.b.b.b.b.b.b.b.b.b.b.b.b.b.b.b.b.b.b.b.b.b.b.b.b.b.b.b.b.b.b.b.b.b.b.b.b.b.b.b.b.b.b.b.b.b.b.b.",
"b.b.b.b.b.b.b.b.b.b.b.b.b.b.b.b.b.b.b.b.b.b.b.b.b.b.b.b.b.b.b.b.b.b.b.b.b.b.b.b.b.b.b.b.b.b.b.b.",
"b.b.b.b.b.b.b.b.b.b.b.b.b.b.b.b.b.b.b.b.b.b.b.b.b.b.b.b.b.b.b.b.b.b.b.b.b.R b.b.b.b.b.b.b.b.b.b.",
"b.b.b.b.b.b.b.b.b.b.b.b.b.b.b.b.b.b.b.b.b.| b.b.b.b.b.b.b.b.b.b.b.b.b.b.b.b.b.b.b.b.b.b.b.b.b.b.",
"b.b.b.b.b.b.b.b.b.b.b.b.b.b.b.b.b.b.b.b.b.b b.b.b.b.b.b.b.b.b.b.b.b.b.b.b.b.b.b. .b.b.b.b.b.b.b.",
"b.b.b.b.b.b.b.b.b.5.b.b.b.b.b.b.b.b.b.b.b.5 b.b.n u b.b.b.b.b.b.b.b.b.b.b.b.b.6.b.b.b.b.b.b.b.b.",
"b.b.b.b.b.b.b.b.b.b.4.b.b.b.b.b.b.1.b.b.e 5 b.b.l + b.b.b.b.b.b.b.b.b.b.b.b.b.b.b.b.b.b.b.b.b.b.",
"b.b.b.b.b.b.b.b.b.b.b.b.b.b.b.b.b.b.b.b.` Z , z v 7 b.b.v J 4.0.6.b.b.b.b.b.b.b.b.b.b.b.$.b.b.b.",
"b.b.b.b.b.b.b.b.b.b.b.b.b.b.b.b.b.' b.b.O.I ; h * > b.U K } K | ` b.b.b.b.b.b.b.b.b.b.+.<.b.b.b.",
"b.b.b.b.b.b.b.b.b.b.b.b.e.b.b.b.y...8 b.{ *.: j 1 r P ! +.u b.@ b.b.b.b.b.b.b.b.b.b.$.) b.b.b.b.",
"b.b.b.b.b.b.b.b.b.b.b.b.b.1.r.b.f.+.- < L 9.Y U / &.s.>.=.b.t b.b.z 9 n b.b.b.b.b.1.r.n n b.b.b.",
"b.b.b.b.b.b.b.b.b.b.b.b.b.+.` j &.3.< K 9.l.y.1.g.i.l.g...B b.b.y i l _ b.b.b.b.b.] 3.0.x b.b.b.",
"b.b.b.b.b.b.b.+.K b.b.b.J n u X s { ] <.k.z.l.z.z.z.z.z.i.w.V f ; = n b.b.b.b.b.J % _ ~  .n b.b.",
"b.b.b.b.b.b.b.) q n H b.b.b.b.+ { y.u.6.g.x.x.z.x.x.z.x.z.l.:.3 s g R b.b.u v u - y c b.b.b.b.b.",
"b.b.b.b.b.b.b.b._ z H #.' S > $ :.l.k.g.k.z.c.c.c.c.x.x.x.z.l.q.9.L S 8 - p l b.b.b.b.b.b.b.b.b.",
"b.b.b.b.b.b.b.b.j.[ u ` ' Y +.0.l.z.z.z.c.c.c.c.c.c.x.c.c.x.x.l.u.@.-.G - b.b.b.b.b.b.b.b.b.b.b.",
"b.b.b.b.b.b.b.b.j.x.5...i ) [ 4.f.z.c.c.c.c.v.v.v.v.v.c.c.x.x.x.z.;.p u b.b.b.b.b.b.b.b.b.b.b.b.",
"b.b.b.b.b.b.b.b.1.b.h.k.~ g { k.z.z.c.c.c.v.v.v.v.v.v.v.c.x.c.x.x.5.b.b.b.b.b.b.b.b.b.b.b.b.b.b.",
"b.b.b.b.b.b.b.b.u.r.h.u.3.O.g.g.z.c.c.c.v.v.v.v.v.v.v.v.v.c.c.x.z.d.y.*.b.b.b.b.b.b.b.b.b.b.b.b.",
"b.b.b.b.b.b.b.b.b.u.r.,.I  .z.k.l.z.z.x.v.v.v.v.v.v.v.v.v.c.c.x.x.z.f.5.4.h.k.i...S b.b.b.b.b.b.",
"b.b.b.b.b.b.b.b.b.b.k.c.x.5.p.l.l.h.z.l.x.v.v.v.v.v.v.v.v.c.c.x.z.z.r.G b.b.b.b.b.b.b.b.b.b.b.b.",
"b.b.b.b.b.b.b.b.b.b.{ ;.( A u.z.z.l.z.z.x.v.v.v.v.v.v.v.v.c.c.x.z.z.q.G 0 ' b.b.b.b.b.b.b.b.b.b.",
"b.b.b.b.b.b.b.b.b.b.Y K R | -.k.k.z.z.c.x.c.v.v.v.v.v.v.v.c.c.x.x.8.b.b.b.b.b.b.b.b.b.b.b.b.b.b.",
"b.b.b.b.b.b.b.b.4 o x 7 O 2  .2.p.l.x.c.c.v.c.v.v.v.v.v.c.c.c.x.x.:.b.b.b.b.b.b.b.b.b.b.b.b.b.b.",
"b.b.b.b.b.b.b.b.b.b.b.b.P N +.+.p.h.x.c.c.v.v.v.v.v.v.v.c.c.x.x.x.-.h l K b.b.b.b.b.b.b.b.b.b.b.",
"b.b.b.b.b.b.b.b.b.b.b.b.# $ k 5.h.f.l.z.c.v.v.v.c.c.c.c.c.x.z.x.k.S b.b.b.b.b.b.b.b.b.b.b.b.b.b.",
"b.b.b.b.b.b.b.b.b.b.b.b.8 p A W r.p.k.z.z.x.c.c.c.z.c.x.c.x.x.j.o.:.C e b.b.b.b.b.b.b.b.b.b.b.b.",
"b.b.b.b.b.b.b.b.b.b.b.K K J %.E <.r.h.h.z.z.z.x.c.z.z.z.x.k.u.6.O.w & . c b.b.b.b.b.b.b.b.b.b.b.",
"b.b.b.b.b.b.b.b.b.b.Y _ ] ,.t.A F { r.h.z.z.z.c.z.z.f.k.z.f.9.} ` g b.b.h 7 b.b.b.b.b.b.b.b.b.b.",
"b.b.b.b.b.b.b.b.b.b.b.5.=.} H c N ,.U d.z.z.z.x.x.k.i.w.u.2.Y <.#.b.b.b.b.b a b.b.b.b.b.b.b.b.b.",
"b.b.b.b.b.b.b.b.b.b.b.b.b.b.e.p { ` * 6 7.,.q.d.l.k.a.@.m J { r.r.e.b.b.b.b.b.b.b.b.b.b.b.b.b.b.",
"b.b.b.b.b.b.b.b.b.b.b.b.b.4.b._ -.b.g - 1 / / #.] @.F e b.r w b.b.b.b.b.b.b.b.b.b.b.b.b.b.b.b.b.",
"b.b.b.b.b.b.b.b.b.4.+. .| b.b.b.u.p.b.b.b.b.Q _ @ b.b.  b.0 u b.b.b.b.b.b.b.b.b.b.b.b.b.b.b.b.b.",
"b.b.b.b.b.b.b.b.b.1.2.` &.b.b.b.b.k.b.b.b.b.b.c b.b.b.- b.H i b.b.b.b.b.b.b.b.b.b.2.b.b.b.b.b.b.",
"b.b.b.b.b.b.b.b.b.b.b.b.1.b.b.b.b.3.[ b.b.b.n v b.b.b.` b.b._ b.b.b.b.b.b.b.b.b.b.b.` b.b.b.b.b.",
"b.b.b.b.b.b.b.b.b.b.b.b.b.b.b.b.b.b.b.b.b.b.H _ K b.b.G M b.b.b.b.b.b.b.b.b.b.b.b.b.b.b.b.b.b.b.",
"b.b.b.b.b.b.b.b.b.b.b.b.b.b.b.b.b.b.b.b.b.b.+.) ' b.b.K b.b.b.b.b.b.b.b.b.b.b.b.b.b.b.b.b.b.b.b.",
"b.b.b.b.b.b.b.b.b.b.b.b.b.b.b.b.b.b.b.b.b.b.e._ a b.b.b.b.b.b.b.b.b.b.b.b.b.b.b.b.b.b.b.b.b.b.b.",
"b.b.b.b.b.b.b.b.b.b.b.b.b.b.b.b.b.b.b.b.b.2.e.#.[ <.b.b.b.b.b.b.b.b.b.b.b.b.b.b.b.b.b.b.b.b.b.b.",
"b.b.b.b.b.b.b.b.b.b.b.b.b.b.b.b.b.b.b.b.b.b.$.1.b.b.b.b.b.b.b.b.b.b.b.b.b.b.b.b.b.b.b.b.b.b.b.b.",
"b.b.b.b.b.b.b.b.b.b.b.b.b.b.b.b.b.b.b.b.b.b.b.#.b.b.b.b.b.b.b.b.b.b.b.b.b.b.b.b.b.b.b.b.b.b.b.b.",
"b.b.b.b.b.b.b.b.b.b.b.b.b.b.b.b.b.b.b.b.b.b.b.e.b.b.b.b.b.b.b.b.b.b.b.b.b.b.b.b.b.b.b.b.b.b.b.b.",
"b.b.b.b.b.b.b.b.b.b.b.b.b.b.b.b.b.b.b.b.b.b.b.b.b.b.b.b.b.b.b.b.b.b.b.b.b.b.b.b.b.b.b.b.b.b.b.b.",
"b.b.b.b.b.b.b.b.b.b.b.b.b.b.b.b.b.b.b.b.b.b.b.b.b.b.b.b.b.b.b.b.b.b.b.b.b.b.b.b.b.b.b.b.b.b.b.b.",
"b.b.b.b.b.b.b.b.b.b.b.b.b.b.b.b.b.b.b.b.b.b.b.b.b.b.b.b.b.b.b.b.b.b.b.b.b.b.b.b.b.b.b.b.b.b.b.b."
};
