/* XPM */
static char *result[] = {
/* columns rows colors chars-per-pixel */
"64 48 156 2 ",
"   c #020202",
".  c #040A03",
"X  c #0B0B0B",
"o  c #0D1404",
"O  c #051805",
"+  c #0D110D",
"@  c #141414",
"#  c #1C1C1B",
"$  c #161817",
"%  c #022303",
"&  c #032308",
"*  c #0C290C",
"=  c #1D2707",
"-  c #192807",
";  c #1C2D08",
":  c #023303",
">  c #093706",
",  c #063D05",
"<  c #1F3307",
"1  c #1E3309",
"2  c #213709",
"3  c #203D09",
"4  c #21231E",
"5  c #242424",
"6  c #262824",
"7  c #2A2A2A",
"8  c #30302F",
"9  c #353535",
"0  c #373738",
"q  c #3B3B3A",
"w  c #024E03",
"e  c #0E4D05",
"r  c #1E4306",
"t  c #025104",
"y  c #105D06",
"u  c #1F5108",
"i  c #26410A",
"p  c #304A09",
"a  c #385008",
"s  c #3C5C09",
"d  c #366707",
"f  c #3A6D04",
"g  c #39670A",
"h  c #366909",
"j  c #396808",
"k  c #3A6806",
"l  c #297209",
"z  c #3E7103",
"x  c #3F7309",
"c  c #45630A",
"v  c #446909",
"b  c #4A7D03",
"n  c #477907",
"m  c #4E7C1B",
"M  c #527E23",
"N  c #403F40",
"B  c #434343",
"V  c #4C4C4C",
"C  c #545454",
"Z  c #5C5C5C",
"A  c #646564",
"S  c #6C6C6C",
"D  c #6F6F71",
"F  c #747475",
"G  c #7C7C7C",
"H  c #4D8103",
"J  c #4F810C",
"K  c #4D8A07",
"L  c #528503",
"P  c #588207",
"I  c #568A02",
"U  c #588C01",
"Y  c #5C860B",
"T  c #5F8B0D",
"R  c #5D9202",
"E  c #599806",
"W  c #59980B",
"Q  c #5D8A18",
"!  c #5B8A17",
"~  c #62880E",
"^  c #65830E",
"/  c #639601",
"(  c #659901",
")  c #6B9D02",
"_  c #629A0B",
"`  c #6E9F1A",
"'  c #6E9E16",
"]  c #7F9B13",
"[  c #6EA202",
"{  c #6EA409",
"}  c #71A501",
"|  c #74A904",
" . c #7AAD03",
".. c #7DB203",
"X. c #568429",
"o. c #7A9D52",
"O. c #82B502",
"+. c #87B902",
"@. c #8ABD03",
"#. c #86AE10",
"$. c #97BC3F",
"%. c #8DC204",
"&. c #93C602",
"*. c #96CA03",
"=. c #9ACD02",
"-. c #9CD003",
";. c #A3D504",
":. c #A6DA04",
">. c #C3CB0F",
",. c #D0D20E",
"<. c #EEE90C",
"1. c #88A765",
"2. c #A6BE7F",
"3. c #A7CA47",
"4. c #C3DE70",
"5. c #C8DF73",
"6. c #7E7E80",
"7. c #848485",
"8. c #878789",
"9. c #8D8D8D",
"0. c #8F8F91",
"q. c #939394",
"w. c #9D9D9E",
"e. c #9F9FA1",
"r. c #A09FA0",
"t. c #9FA0A2",
"y. c #A1A1A1",
"u. c #ABABAC",
"i. c #AFAFB1",
"p. c #B4B4B5",
"a. c #B6B6B8",
"s. c #BCBCBC",
"d. c #B8CD87",
"f. c #B9CE8C",
"g. c #B5C892",
"h. c #DDEE9E",
"j. c #C9D7A3",
"k. c #CADBA1",
"l. c #CEDCB8",
"z. c #DDEEA1",
"x. c #C7C7C8",
"c. c #C9C9CB",
"v. c #C1C1C2",
"b. c #CFCFD1",
"n. c #D0CFD2",
"m. c #D3D3D3",
"M. c #D6D6D8",
"N. c gray87",
"B. c #D7E2C2",
"V. c #DBE5C6",
"C. c #F7FECD",
"Z. c #E6EED1",
"A. c #FAFEE3",
"S. c #FBFDF2",
"D. c #FDFEF8",
"F. c None",
/* pixels */
"F.F.F.F.F.F.F.F.F.F.F.F.F.F.F.F.F.F.F.F.F.F.F.F.F.F.F.F.F.F.F.F.F.F.F.F.F.F.F.F.F.F.F.F.F.F.F.F.F.F.F.F.F.F.F.F.F.F.F.F.F.F.F.F.",
"F.F.F.F.F.F.F.F.F.F.F.F.F.F.F.F.F.F.F.F.F.F.F.F.F.F.F.F.F.F.F.F.F.F.F.F.F.F.F.F.F.F.F.F.F.F.F.F.F.F.F.F.F.F.F.F.F.F.F.F.F.F.F.F.",
"F.F.F.F.F.F.F.F.F.F.F.F.F.F.F.F.F.F.F.F.F.F.F.F.F.F.F.F.F.F.F.F.F.F.F.F.F.F.F.F.F.F.F.F.F.F.F.F.F.F.F.F.F.F.F.F.F.F.F.F.F.F.F.F.",
"F.F.F.F.F.F.F.F.F.F.F.F.F.F.F.F.F.F.F.F.F.F.F.F.F.F.F.F.F.F.F.F.F.F.F.F.F.F.F.F.F.F.F.F.F.F.F.F.F.F.F.F.F.F.F.F.F.F.F.F.F.F.F.F.",
"F.F.F.F.F.F.F.F.F.F.F.F.F.F.F.F.F.F.F.F.F.F.F.F.F.F.F.F.F.F.F.F.F.F.F.F.F.F.F.F.F.F.F.F.F.F.F.F.F.F.F.F.F.F.F.F.F.F.F.F.F.F.F.F.",
"F.F.F.F.F.F.F.F.F.F.F.F.F.F.F.F.F.F.F.F.F.F.F.F.F.F.F.F.F.F.F.F.F.F.F.F.F.F.F.F.F.F.F.F.F.F.F.F.F.F.F.F.F.F.F.F.F.F.F.F.F.F.F.F.",
"F.F.F.F.F.F.F.F.F.F.F.F.F.F.F.F.F.F.F.F.F.F.F.F.F.F.F.F.F.F.F.F.F.F.F.F.F.F.F.F.F.F.F.F.F.F.F.F.F.F.F.F.F.F.F.F.F.F.F.F.F.F.F.F.",
"F.F.F.F.F.F.F.F.F.F.F.F.F.F.F.F.F.F.F.F.F.F.F.F.F.F.F.F.F.F.F.F.F.F.F.F.F.F.F.F.F.F.F.F.F.F.F.F.F.F.F.F.F.F.F.F.F.F.F.F.F.F.F.F.",
"F.F.F.F.F.F.F.F.F.F.F.F.F.F.F.F.F.F.F.F.F.F.F.F.F.F.F.F.F.F.F.F.F.F.F.F.F.F.F.F.F.F.F.F.F.F.F.F.F.F.F.F.F.F.F.F.F.F.F.F.F.F.F.F.",
"F.F.F.F.F.F.F.F.F.F.F.F.F.F.F.F.F.F.F.F.F.F.F.F.F.F.F.F.j f X.o.1.o.M f j F.F.F.F.F.F.F.F.F.F.F.F.F.F.F.F.F.F.F.F.F.F.F.F.F.F.F.",
"F.F.F.F.F.F.F.F.F.F.F.F.F.F.F.F.F.F.F.F.F.F.F.F.F.F.d X.V.S.B.g.d.g.V.D.l.m h F.F.F.F.F.F.F.F.F.F.F.F.F.F.F.F.F.F.F.F.F.F.F.F.F.",
"F.F.F.F.F.F.F.F.F.F.F.F.F.F.F.F.F.F.F.F.F.F.F.F.F.f k.j.! L I I H I I Z.S.A.d.f F.F.F.F.F.F.F.F.F.F.F.F.F.F.F.F.F.F.F.F.F.F.F.F.",
"F.F.F.F.F.F.F.F.F.F.F.F.F.F.F.F.F.F.F.F.F.F.F.F.x z.! L U R / / / / / R f.A.C.h.f F.F.F.F.F.F.F.F.F.F.F.F.F.F.F.F.F.F.F.F.F.F.F.",
"F.F.F.F.F.F.F.F.F.F.F.F.F.F.F.F.F.F.F.F.F.F.F.f 4.H I R ( ) [ } } [ [ * P R ~ b 5.f F.F.F.F.F.F.F.F.F.F.F.F.F.F.F.F.F.F.F.F.F.F.",
"F.F.F.F.F.F.F.F.F.F.F.F.F.F.F.F.F.F.F.F.F.F.j 3.b I R p ~ { | O...| ..| [ ( R I H $.g F.F.F.F.F.F.F.F.F.F.F.F.F.F.F.F.F.F.F.F.F.",
"F.F.F.F.F.F.F.F.F.F.F.F.F.F.F.F.F.F.F.F.F.F.J b I R ( i ~ { W W %.W E .. .[ ) R L Y n F.F.F.F.F.F.F.F.F.F.F.F.F.F.F.F.F.F.F.F.F.",
"F.F.F.F.F.F.F.F.F.F.F.F.F.F.F.F.F.F.F.F.F.h ' H L / [  .+.@.&.l &.*.l @.O. .} ( U H ' d F.F.F.F.F.F.F.F.F.F.F.F.F.F.F.F.F.F.F.F.",
"F.F.F.F.F.F.F.F.F.F.F.F.F.F.F.F.F.F.F.F.F.f n b & O | O.@.*.W w t w y &.@.O.} ~ c H b f F.F.F.F.F.F.F.F.F.F.F.F.F.F.F.F.F.F.F.F.",
"F.F.F.F.F.F.F.F.F.F.F.F.F.F.F.F.F.F.F.F.F.f b L o - O.@.&.%.w w t w w &.&.+. .O : b b f F.F.F.F.F.F.F.F.F.F.F.F.F.F.F.F.F.F.F.F.",
"F.F.F.F.F.F.F.F.F.F.F.F.F.F.F.F.F.F.F.F.F.f b I / } O.@.=.K w >.<.e #.{ *.@. .c 1 I b z F.F.F.F.F.F.F.F.F.F.F.F.F.F.F.F.F.F.F.F.",
"F.F.F.F.F.F.F.F.F.F.F.F.F.F.F.F.F.F.N V o n b I ( } O.2 *._ , >.<.u ,...*.+.& c / I H f X B F.F.F.F.F.F.F.F.F.F.F.F.F.F.F.F.F.F.",
"F.F.F.F.F.F.F.F.F.F.F.F.F.F.F.F.F.B B C $ 2 b I / } O.b *.;., : : : > ;.*.+.2 Y / I b ; 4 B B F.F.F.F.F.F.F.F.F.F.F.F.F.F.F.F.F.",
"F.F.F.F.F.F.F.F.F.F.F.F.F.F.F.F.B B V C S X X v / )  .+.&.-.:.s & r -.-.&.+.| ) R g . q C V B B F.F.F.F.F.F.F.F.F.F.F.F.F.F.F.F.",
"F.F.F.F.F.F.F.F.F.F.F.F.F.F.F.F.B B V D # S F A $ s { O.@.*.=.^ . #.-.*.%...[ a # A S @ D V B B F.F.F.F.F.F.F.F.F.F.F.F.F.F.F.F.",
"F.F.F.F.F.F.F.F.F.F.F.F.F.F.F.F.9 B S # A 6 Z 8.F 0.D 4 = o             o 6 S 0 8.F # A @ G B q F.F.F.F.F.F.F.F.F.F.F.F.F.F.F.F.",
"F.F.F.F.F.F.F.F.F.F.F.F.F.F.F.F.  N @ Z q.  A 0.4 w.u.a.p.F N.m.b.m.F e.v.u.r.# 0.F   G Z @ 9   F.F.F.F.F.F.F.F.F.F.F.F.F.F.F.F.",
"F.F.F.F.F.F.F.F.F.F.F.F.F.F.F.F.F.  5 Z D r.6.9.G r.u.a.u.u.M.G 9.M.i.e.a.u.y.G w.6.r.7.Z 5   F.F.F.F.F.F.F.F.F.F.F.F.F.F.F.F.F.",
"F.F.F.F.F.F.F.F.F.F.F.F.F.F.F.F.F.F.    8 D 6.$ q.r.u.a.F x.x.  + m.x.G a.u.y.q.$ 6.D 8   X # F.F.F.F.F.F.F.F.F.F.F.F.F.F.F.F.F.",
"F.F.F.F.F.F.F.F.F.F.F.F.F.F.F.F.F.F.# B +   X 9 7.w.u.p.5 x.n.i.s.n.x.5 p.u.e.7.0     + C N F.F.F.F.F.F.F.F.F.F.F.F.F.F.F.F.F.F.",
"F.F.F.F.F.F.F.F.F.F.F.F.F.F.F.F.F.F.F.q A G B X       5 X S 7.q.0.7.S + 5 .     . 5 Z Z N # F.F.F.F.F.F.F.F.F.F.F.F.F.F.F.F.F.F.",
"F.F.F.F.F.F.F.F.F.F.F.F.F.F.F.F.F.F.F.$ 0 V C V 7 $ 5 4 +             @ 8 C V 7 F.# 5 5 $ F.F.F.F.F.F.F.F.F.F.F.F.F.F.F.F.F.F.F.",
"F.F.F.F.F.F.F.F.F.F.F.F.F.F.F.F.F.F.F.F.F.# # $ F.F.# q V V q # F.9 Z F F Z q $ F.F.F.F.F.F.F.F.F.F.F.F.F.F.F.F.F.F.F.F.F.F.F.F.",
"F.F.F.F.F.F.F.F.F.F.F.F.F.F.F.F.F.F.F.F.F.F.F.F.F.F.F.F.$ $ F.F.F.F.7 q q 7 $ F.F.F.F.F.F.F.F.F.F.F.F.F.F.F.F.F.F.F.F.F.F.F.F.F.",
"F.F.F.F.F.F.F.F.F.F.F.F.F.F.F.F.F.F.F.F.F.F.F.F.F.F.F.F.F.F.F.F.F.F.F.F.F.F.F.F.F.F.F.F.F.F.F.F.F.F.F.F.F.F.F.F.F.F.F.F.F.F.F.F.",
"F.F.F.F.F.F.F.F.F.F.F.F.F.F.F.F.F.F.F.F.F.F.F.F.F.F.F.F.F.F.F.F.F.F.F.F.F.F.F.F.F.F.F.F.F.F.F.F.F.F.F.F.F.F.F.F.F.F.F.F.F.F.F.F.",
"F.F.F.F.F.F.F.F.F.F.F.F.F.F.F.F.F.F.F.F.F.F.F.F.F.F.F.F.F.F.F.F.F.F.F.F.F.F.F.F.F.F.F.F.F.F.F.F.F.F.F.F.F.F.F.F.F.F.F.F.F.F.F.F.",
"F.F.F.F.F.F.F.F.F.F.F.F.F.F.F.F.F.F.F.F.F.F.F.F.F.F.F.F.F.F.F.F.F.F.F.F.F.F.F.F.F.F.F.F.F.F.F.F.F.F.F.F.F.F.F.F.F.F.F.F.F.F.F.F.",
"F.F.F.F.F.F.F.F.F.F.F.F.F.F.F.F.F.F.F.F.F.F.F.F.F.F.F.F.F.F.F.F.F.F.F.F.F.F.F.F.F.F.F.F.F.F.F.F.F.F.F.F.F.F.F.F.F.F.F.F.F.F.F.F.",
"F.F.F.F.F.F.F.F.F.F.F.F.F.F.F.F.F.F.F.F.F.F.F.F.F.F.F.F.F.F.F.F.F.F.F.F.F.F.F.F.F.F.F.F.F.F.F.F.F.F.F.F.F.F.F.F.F.F.F.F.F.F.F.F.",
"F.F.F.F.F.F.F.F.F.F.F.F.F.F.F.F.F.F.F.F.F.F.F.F.F.F.F.F.F.F.F.F.F.F.F.F.F.F.F.F.F.F.F.F.F.F.F.F.F.F.F.F.F.F.F.F.F.F.F.F.F.F.F.F.",
"F.F.F.F.F.F.F.F.F.F.F.F.F.F.F.F.F.F.F.F.F.F.F.F.F.F.F.F.F.F.F.F.F.F.F.F.F.F.F.F.F.F.F.F.F.F.F.F.F.F.F.F.F.F.F.F.F.F.F.F.F.F.F.F.",
"F.F.F.F.F.F.F.F.F.F.F.F.F.F.F.F.F.F.F.F.F.F.F.F.F.F.F.F.F.F.F.F.F.F.F.F.F.F.F.F.F.F.F.F.F.F.F.F.F.F.F.F.F.F.F.F.F.F.F.F.F.F.F.F.",
"F.F.F.F.F.F.F.F.F.F.F.F.F.F.F.F.F.F.F.F.F.F.F.F.F.F.F.F.F.F.F.F.F.F.F.F.F.F.F.F.F.F.F.F.F.F.F.F.F.F.F.F.F.F.F.F.F.F.F.F.F.F.F.F.",
"F.F.F.F.F.F.F.F.F.F.F.F.F.F.F.F.F.F.F.F.F.F.F.F.F.F.F.F.F.F.F.F.F.F.F.F.F.F.F.F.F.F.F.F.F.F.F.F.F.F.F.F.F.F.F.F.F.F.F.F.F.F.F.F.",
"F.F.F.F.F.F.F.F.F.F.F.F.F.F.F.F.F.F.F.F.F.F.F.F.F.F.F.F.F.F.F.F.F.F.F.F.F.F.F.F.F.F.F.F.F.F.F.F.F.F.F.F.F.F.F.F.F.F.F.F.F.F.F.F.",
"F.F.F.F.F.F.F.F.F.F.F.F.F.F.F.F.F.F.F.F.F.F.F.F.F.F.F.F.F.F.F.F.F.F.F.F.F.F.F.F.F.F.F.F.F.F.F.F.F.F.F.F.F.F.F.F.F.F.F.F.F.F.F.F.",
"F.F.F.F.F.F.F.F.F.F.F.F.F.F.F.F.F.F.F.F.F.F.F.F.F.F.F.F.F.F.F.F.F.F.F.F.F.F.F.F.F.F.F.F.F.F.F.F.F.F.F.F.F.F.F.F.F.F.F.F.F.F.F.F.",
"F.F.F.F.F.F.F.F.F.F.F.F.F.F.F.F.F.F.F.F.F.F.F.F.F.F.F.F.F.F.F.F.F.F.F.F.F.F.F.F.F.F.F.F.F.F.F.F.F.F.F.F.F.F.F.F.F.F.F.F.F.F.F.F."
};
