/* XPM */
static char *result[] = {
/* columns rows colors chars-per-pixel */
"48 48 210 2 ",
"   c #1F0FF5",
".  c #251BEF",
"X  c #2701F7",
"o  c #2C03F6",
"O  c #2B0CF5",
"+  c #2604F9",
"@  c #2B02FA",
"#  c #270DF8",
"$  c #330CF7",
"%  c #320CF9",
"&  c #3508F9",
"*  c #2B13F4",
"=  c #261AF3",
"-  c #2B1AF3",
";  c #2C16F7",
":  c #3115F6",
">  c #3414FA",
",  c #3B12FA",
"<  c #331AF8",
"1  c #3A1CF9",
"2  c #1D2AED",
"3  c #1E3BEE",
"4  c #1A33EB",
"5  c #1B2BF1",
"6  c #2139E8",
"7  c #2423F3",
"8  c #2B23F6",
"9  c #2229F3",
"0  c #2C2BF4",
"q  c #2E23FA",
"w  c #2D2DFA",
"e  c #3223F4",
"r  c #3523FA",
"t  c #3B24FB",
"y  c #322DFA",
"u  c #3C2DFB",
"i  c #392CF5",
"p  c #2230F7",
"a  c #2C34F3",
"s  c #2C3DF5",
"d  c #2E37FA",
"f  c #273DF8",
"g  c #2E3BFA",
"h  c #243FF6",
"j  c #3838F6",
"k  c #3B34FB",
"l  c #333AF9",
"z  c #3635FD",
"x  c #4029FC",
"c  c #443EF7",
"v  c #165EDE",
"b  c #2F5ACD",
"n  c #2A58DE",
"m  c #2660D6",
"M  c #1C4BE5",
"N  c #1A44E8",
"B  c #1749E6",
"V  c #1D5EEC",
"C  c #1B46F3",
"Z  c #1E5FF7",
"A  c #1F54F1",
"S  c #2444EA",
"D  c #2351EB",
"F  c #3150E5",
"G  c #2E43F4",
"H  c #234CF3",
"J  c #2D4AF4",
"K  c #2747F8",
"L  c #2A4EF9",
"P  c #2946F9",
"I  c #304BF5",
"U  c #364CFB",
"Y  c #3A4CFB",
"T  c #3745F8",
"R  c #235DF4",
"E  c #2F5AF4",
"W  c #2B5AFB",
"Q  c #3453FA",
"!  c #3C5AFC",
"~  c #3556F8",
"^  c #1C67EB",
"/  c #1D70EF",
"(  c #1979EB",
")  c #1A7CF1",
"_  c #2769ED",
"`  c #2266E9",
"'  c #2777EC",
"]  c #2463F6",
"[  c #2D64F7",
"{  c #2B6BFB",
"}  c #266BF7",
"|  c #3364F6",
" . c #306FF6",
".. c #3362FB",
"X. c #346BFA",
"o. c #3F6BFD",
"O. c #3C62FF",
"+. c #2672F1",
"@. c #2E74F4",
"#. c #2A7DF6",
"$. c #2C73F9",
"%. c #277CF7",
"&. c #387FF0",
"*. c #3473FB",
"=. c #3D73FC",
"-. c #3A7AFC",
";. c #3677F9",
":. c #4444FC",
">. c #414DFD",
",. c #4555FE",
"<. c #4C5CFE",
"1. c #436CFC",
"2. c #4265FF",
"3. c #4375FE",
"4. c #437BFC",
"5. c #4B7AFD",
"6. c #1F8FF0",
"7. c #2387EF",
"8. c #2A80EB",
"9. c #3994EF",
"0. c #2584F4",
"q. c #2F88F2",
"w. c #2E8EFD",
"e. c #2985F8",
"r. c #3685F2",
"t. c #3D85F2",
"y. c #3083FD",
"u. c #3A83FC",
"i. c #348BFB",
"p. c #368BF6",
"a. c #2D94F6",
"s. c #2D91FC",
"d. c #2A97F8",
"f. c #3292FD",
"g. c #3A94FE",
"h. c #339BFE",
"j. c #3D9DFF",
"k. c #3492F6",
"l. c #2AA3FB",
"z. c #2FABFC",
"x. c #34A3FB",
"c. c #3BA2FC",
"v. c #36ABFE",
"b. c #3CABFF",
"n. c #3DA9F6",
"m. c #2DB3FF",
"M. c #3BB5FF",
"N. c #3DBCFF",
"B. c #34B8FE",
"V. c #4385FD",
"C. c #4B83FC",
"Z. c #438BFC",
"A. c #5087FF",
"S. c #4394FE",
"D. c #4B94FE",
"F. c #439BFB",
"G. c #4B9BFC",
"H. c #579CFF",
"J. c #43A4FE",
"K. c #4DA5FE",
"L. c #43ABFE",
"P. c #4BACFE",
"I. c #47A1F6",
"U. c #52A4FE",
"Y. c #5AA4FF",
"T. c #54ABFE",
"R. c #43B5FF",
"E. c #4BB4FE",
"W. c #43BAFE",
"Q. c #4DB8FE",
"!. c #55BFFF",
"~. c #5BBEFF",
"^. c #52B3FF",
"/. c #66AEFF",
"(. c #3DC3FF",
"). c #39CDFF",
"_. c #49C3FF",
"`. c #45C9FF",
"'. c #54C0FF",
"]. c #5DC9FF",
"[. c #4FD1FF",
"{. c #53D6FF",
"}. c #5CD3FF",
"|. c #53DEFF",
" X c #61CCFF",
".X c #6BC4FF",
"XX c #61D2FF",
"oX c #6CD6FF",
"OX c #6BDDFF",
"+X c #63DCFF",
"@X c #73DCFF",
"#X c #5AE3FF",
"$X c #60E2FF",
"%X c #6DEAFF",
"&X c #69E7FF",
"*X c #72E3FF",
"=X c #7CE7FF",
"-X c #76EAFF",
";X c #67F3FF",
":X c #7AF3FF",
">X c #81F5FF",
",X c #90F4FF",
"<X c #9DFAFF",
"1X c #ACECFF",
"2X c #ABF2FF",
"3X c #ABFBFF",
"4X c #CDFAFF",
"5X c #D3FEFF",
"6X c #E4FFFF",
"7X c None",
/* pixels */
"7X7X7X7X7X7X7X7X7X7X7X7X7X7X7X7X7X7X7X7X7X7X7X7X7X7X7X7X7X7X7X7X7X7X7X7X7X7X7X7X7X7X7X7X7X7X7X7X",
"7X7X7X7X7X7X7X7X7X7X7X7X7X7X7X7X7X7X7X7X7X7X7X7X7X7X7X7X7X7X7X7X7X7X7X7X7X7X7X7X7X7X7X7X7X7X7X7X",
"7X7X7X7X7X7X7X7X7X7X7X7X7X7X7X7X7X7X7X7X7X7X7X7X7X7X7X7X7X7X7X7X7X7X7X7X7X7X7X7X7X7X7X7X7X7X7X7X",
"7X7X7X7X7X7X7X7X7X7X7X7X7X7X7X7X7X7X7X7X7X7X7X7X7X7X7X7X7X7X7X7X7X7X7X7X7X7X7X7X7X7X7X7X7X7X7X7X",
"7X7X7X7X7X7X7X7X7X7X7X7X7X7X7X7X7X7X7X7X7X7X7X7X7X7X6 7X7X7X7X7X7X7X7X7X7X7X7X7X7X7X7X7X7X7X7X7X",
"7X7X7X7X7X7X7X7X7X7X7X7X7X7X7X7X7X7X7X7X7X7X7X7XG ~ a - 7X7X7X7X7X7X7X7X7X7X7X7X7X7X7X7X7X7X7X7X",
"7X7X7X7X7X7X7X7X7X7X7X7X7X7X7X7X7X7X7X7X7.n.F.S.U.S.-.;.j T 7X7X7X7X7X7X7X7X7X7X7X7X7X7X7X7X7X7X",
"7X7X7X7X7X7X7X7X7X7X7X7X7X7X7X7X7X7X' 9.m E.Q.c.W.P.R.S.H.V.I S 7X7X7X7X7X7X7X7X7X7X7X7X7X7X7X7X",
"7X7X7X7X7X7X7X7X7X7X7X7X7X7X7X7Xl.7.W.8.&.P.*.h.R.S.Z.L.Z.C.1.[ R H D 7X7X7X7X7X7X7X7X7X7X7X7X7X",
"7X7X7X7X7X7X7X7X7X7X7X7X7X7X7X7Xd.) 0.e.E.M.E S E G 4.p.[ ;.E.'.v.$.f J 7X7X7X7X7X7X7X7X7X7X7X7X",
"7X7X7X7X7X7X7X7X7X7X7X7X7X7X7X7X7X7X7X$.).p.7X7X7X7X7X7X7Xt.F.H $.m.d.Q r.7X7X7X7X7X7X7X7X7X7X7X",
"7X7X7X7X7X7X7X7X7X7X7X7X7XV 7X7X7X7X7X| w.7X7X7X7X7X7X7X7X7X7X7X5 Z E.x.D.` 7X7X7X7X7X7X7X7X7X7X",
"7X7X7X7X7X7X7X7X7X7X7X7X( 7.7X7X7X7X@.k.7X7X7X7X7X7X7X7Xr.q./ N 4 C ;.w.-.X.M 7X7X7X7X7X7X7X7X7X",
"7X7X7X7X7X7X7X7X7X7X7Xx.z.7X7X7X7X7X7X7X7X7X7X7X7X7X7X7Xq.a.l.N 7X# K ]  .3.G 7X7X7X7X7X7X7X7X7X",
"7X7X7X7X7X7X7X7X7X7X%.L.0.7X7X7X7X7X7X7X7X7X7X7X7X7X7X7X7X( z.B 7X7X7 ]  .5...a 7X7X7X7X7X7X7X7X",
"7X7X7X7X7X7X7X7X7XV s.I.' 7X7X7X7X7X7X7X7X7X7X7X7X7X7X7X7X7Xx./ 7X7X7XJ f.! o.U 7X7X7X7X7X7X7X7X",
"7X7X7X7X7X7X7X7X7XS J r.r.7X7X7X7X7X7X7X7X7X7X7X7X7X7X7X7Xn.7.a.+.+.@.| j.f.V.*.: 7X7X7X7X7X7X7X",
"7X7X7X7X7X7X7X7X7X7X* +.7X7X7X7X7X7X7X7X7X7X7X7X7X7X7X7X7X7X7X^ N #.h.] l.m.N.L.w 7X7X7X7X7X7X7X",
"7X7X7X7X7X7X7X7X7X7X= 7X7X7X7X7X7X7X7X7X7X7X7X7X7X7X7X7X7X7X7X7X7X6 J O.s.s.J.'.W 7X7X7X7X7X7X7X",
"7X7X7X7X7X7X7X7X7X7X3 7X7X7X7X7X7X7X7X7X7X7X7X7X7X7X7X7X7X7X7X7X7X7X7XO q d u.!.S.% 7X7X7X7X7X7X",
"7X7X7X7X7X7X7X7X7X: B 7X7X7X7X7X7X7X7X7X7X7X7X7X7X7X7X7X7X7X7X7X7X7X7X7X7XX U L.U.w 7X7X7X7X7X7X",
"7X7X7X7X7X7X7X7X= 9 7X7X7X7X7X7X7X7X7X7X7X7X7X7X7X7X7X7X7X7X7X7X7X7X7X7X7XX l h.~.X._ 7X7X7X7X7X",
"7X7X7X7X7X7X7X7X8 7X7X7X7X7X7X7X7X7X7X7X7X7X7X7X7X7X7X7X7X7X7X7X7X7X7X7X7X# L w. Xh.#.7X7X7X7X7X",
"7X7X7X7X7X7X7X7Xt = 3 7X7X7X7X7X7X7X7X7X7X7X7X7X7X7X7X7X7X7X7X7X7X7X7X7X7X* *.h.XXM.w.7X7X7X7X7X",
"7X7X7X7X7X7X7X7Xq d 9 7X7X7X7X7X7X7X7X7X7X7X7X7X7X7X7X7X7X7X7X7X7X7X7X7X7X; U.M. Xh.j.7X7X7X7X7X",
"7X7X7X7X7X7X7X7XY ! 2 7X7X7X7X7X7X7X7X7X7X7X7X7X7X7X7X7X7X7X7X7X7X7X7X7X7X= Z.j. Xg.S.7X7X7X7X7X",
"7X7X7X7X7X7X7X7Xo.Z.6 7X7X7X7X7X7X7X7X7X7X7X7X7X7X7X7X7X7X7X7X7X7X7X7X7X7X: Q b.].S.| 7X7X7X7X7X",
"7X7X7X7X7X7X7X7X[ T.A 7X7X7X7X7X7X7X7X7X7X7X7X7X7X7X7X7X7X7X7X7X7X7X7X7X7XO *.`.'.D.r 7X7X7X7X7X",
"7X7X7X7X7X7X7X7XR K.%.* 7X7X7X7X7X7X7X7X7X7X7X7X7X7X7X7X7X7X7X7X7X7X7X7XO k L.}.].:.7X7X7X7X7X7X",
"7X7X7X7X7X7X7X7XR C.*.L # 7X7X7X7X7X7X7X7X7X7X7X7X7X7X7X7X7X7X7X7X7X7Xo < 5._.oXU., 7X7X7X7X7X7X",
"7X7X7X7X7X7X7X7XD 5.q -.5 7X7X7X7X7X7X7X7X7X7X7X7X7X7X7X7X7X7X* 7X7X7X, >.Y.{.&X,.7X7X7X7X7X7X7X",
"7X7X7X7X7X7X7X7X7XQ w 9 p # 7X7X7X7X7X7X7X7X7X7X7X7X7X7X7X7X7X7Xg 0 & t 2.N.>XK., 7X7X7X7X7X7X7X",
"7X7X7X7X7X7X7X7X7XE Q a K g 7X7X$ O 7X7X7X7X7X7X7X7X7X7X7X7X7X7X1 2.:.1.R.;X&Xo.: 7X7X7X7X7X7X7X",
"7X7X7X7X7X7X7X7X7X7X{ L G u.+ : i - 7X7X7X7X7X7X7X7X7X7X7X7X7X> , u /.{.:X<XN.Q : 7X7X7X7X7X7X7X",
"7X7X7X7X7X7X7X7X7X7X_ u.[ G.K # Y c X 7X7X7X7X7X7X7X7X7X7X7X= & x A.}.3X5X,XR.X.w ; 7X7X7X7X7X7X",
"7X7X7X7X7X7X7X7X7X7X7XJ.y.J.V.P Y <.@ + 7X7X7X7X7X7X7X7X7X. 0 T ,.L.>X6X4X@Xy.q 7X7X7X7X7X7X7X7X",
"7X7X7X7X7X7X7X7X7X7X7X7X@.c.b.C.X.=.z y s 0 7 0 O o @ , & u 3.G.R.#X3X2X.Xg.W y * 7X7X7X7X7X7X7X",
"7X7X7X7X7X7X7X7X7X7X7X7X7XI L.E.Y.P.c...U ..r r l j > > k -.N.}.*X:X%XE.i.L % 7X7X7X7X7X7X7X7X7X",
"7X7X7X7X7X7X7X7X7X7X7X7X7X7X7XG.B.`.OX XP.M.T.! O.4.g.L.(.|.@XoX_.$Xg.{ L O 7X7X7X7X7X7X7X7X7X7X",
"7X7X7X7X7X7X7X7X7X7X7X7X7X7X7X7XF @.M.|.oX*X%X-X=X=X&X+X].XXD.2.1.V.G 8 < 7X7X7X7X7X7X7X7X7X7X7X",
"7X7X7X7X7X7X7X7X7X7X7X7X7X7X7X7Xb n | J.].Q.(.=X2X2XoXM.F.Y.1 k k e % X 7X7X7X7X7X7X7X7X7X7X7X7X",
"7X7X7X7X7X7X7X7X7X7X7X7X7X7X7X7X7X7X7X7XK =.G.F.i.-...G Q Y < 1 7X7X7X7X7X7X7X7X7X7X7X7X7X7X7X7X",
"7X7X7X7X7X7X7X7X7X7X7X7X7X7X7X7X7X7X7X7X7X7X7X* * ; * 7X7Xo o 7X7X7X7X7X7X7X7X7X7X7X7X7X7X7X7X7X",
"7X7X7X7X7X7X7X7X7X7X7X7X7X7X7X7X7X7X7X7X7X7X7X7X7X7X7X7X7X7X7X7X7X7X7X7X7X7X7X7X7X7X7X7X7X7X7X7X",
"7X7X7X7X7X7X7X7X7X7X7X7X7X7X7X7X7X7X7X7X7X7X7X7X7X7X7X7X7X7X7X7X7X7X7X7X7X7X7X7X7X7X7X7X7X7X7X7X",
"7X7X7X7X7X7X7X7X7X7X7X7X7X7X7X7X7X7X7X7X7X7X7X7X7X7X7X7X7X7X7X7X7X7X7X7X7X7X7X7X7X7X7X7X7X7X7X7X",
"7X7X7X7X7X7X7X7X7X7X7X7X7X7X7X7X7X7X7X7X7X7X7X7X7X7X7X7X7X7X7X7X7X7X7X7X7X7X7X7X7X7X7X7X7X7X7X7X",
"7X7X7X7X7X7X7X7X7X7X7X7X7X7X7X7X7X7X7X7X7X7X7X7X7X7X7X7X7X7X7X7X7X7X7X7X7X7X7X7X7X7X7X7X7X7X7X7X"
};
