/* XPM */
static char *result[] = {
/* columns rows colors chars-per-pixel */
"48 48 79 1 ",
"  c #302F2D",
". c #353432",
"X c #3B3937",
"o c #3D3C3B",
"O c #403E3D",
"+ c #41403F",
"@ c #444342",
"# c #484745",
"$ c #4A4947",
"% c #4E4D4B",
"& c #504F4D",
"* c #52514F",
"= c #555452",
"- c #595755",
"; c #5B5957",
": c #5D5C5A",
"> c #605F5D",
", c #63615E",
"< c #656462",
"1 c #686765",
"2 c #6B6866",
"3 c #6E6C69",
"4 c #716C67",
"5 c #716F6C",
"6 c #74726F",
"7 c #767472",
"8 c #797675",
"9 c #7B7976",
"0 c #7D7B7A",
"q c #817F7C",
"w c #83817F",
"e c #868482",
"r c #898683",
"t c #8C8986",
"y c #8D8B89",
"u c #918E8B",
"i c #94918E",
"p c #959390",
"a c #999693",
"s c #9C9995",
"d c #9E9B98",
"f c #A19E9B",
"g c #A5A29E",
"h c #A6A4A1",
"j c #AAA6A2",
"k c #ADA9A5",
"l c #AEACA9",
"z c #B1ACA7",
"x c #B1AEAB",
"c c #B4B1AD",
"v c #B8B3AF",
"b c #B6B4B2",
"n c #B9B6B3",
"m c #BDB9B5",
"M c #BEBBB9",
"N c #C0BCB6",
"B c #C1BEBA",
"V c #C5C2BE",
"C c #C9C4BF",
"Z c #C6C4C1",
"A c #CAC7C3",
"S c #CCC9C5",
"D c #CECBC8",
"F c #D2CECA",
"G c #D4D1CD",
"H c #D5D3D1",
"J c #D9D6D2",
"K c #DCD8D5",
"L c #DEDBD9",
"P c #E1DEDB",
"I c #E3E1DE",
"U c #E6E4E2",
"Y c #E8E5E2",
"T c #EBE8E5",
"R c #EDEBE9",
"E c #F1EFEC",
"W c #F4F2F1",
"Q c #FAF9F8",
"! c None",
/* pixels */
"!!!!!!!!!!!!!!!!!!!!!!!!!!!!!!!!!!!!!!!!!!!!!!!!",
"!!!!!!!!!!!!!!!!!!!!!!!!!!!!!!!!!!!!!!!!!!!!!!!!",
"!!!!!!!!!!!!!!!!!!!!!!!!!!!!!!!!!!!!!!!!!!!!!!!!",
"!!!!!!!!!!!!!!!!!!!!!!!!!!!!!!!!!!!!!!!!!!!!!!!!",
"!!!!!!!!!!!!!!!!!!!!!!!!!!!!!!!!!!!!!!!!!!!!!!!!",
"!!!!!!!!!!!!!!!!!!!!!!!!!!!!!!!!!!!!!!!!!!!!!!!!",
"!!!!!!!!!!!!!!!!!!!!!!!!!!!!!!!!!!!!!!!!!!!!!!!!",
"!!!!!!!!!!!!!!!!!!!!!!!!!!!!!!!!!!!!!!!!!!!!!!!!",
"!!!!!!!!!!!!!!!!!!!!!!!!!!!!!!!!!!!!!!!!!!!!!!!!",
"!!!!!!!!!!!!!!!!!!!!!!!!!!!!!!!!!!!!!!!!!!!!!!!!",
"!!!!!!!!!!!!!!!!!!!!!!!!!!!!!!!!!!!!!!!!!!!!!!!!",
"!!!!!!!!!!!!!!!!!!!!!!!NBj!!!!!!!!!!!!!!!!!!!!!!",
"!!!!!!!!!!!!!!!!!!!!!CgSjxgs!!!!!!!!!!!!!!!!!!!!",
"!!!!!!!!!!!!!!!!!!!FGBgRLkBzn!!!!!!!!!!!!!!!!!!!",
"!!!!!!!!!!!!!!!!!CDGExxHGSAmjzc!!!!!!!!!!!!!!!!!",
"!!!!!!!!!!!!!!!mGVKYEIILCFmmBmnbl!!!!!!!!!!!!!!!",
"!!!!!!!!!!!!!!!FGFCQIPRGSPPMMVhrgf!!!!!!!!!!!!!!",
"!!!!!!!!!!!!!!CvIPIEGFPPPDScnVmtuk!!!!!!!!!!!!!!",
"!!!!!!!!!!!!!!nAAPLRGCGUGDGJAAMfpca!!!!!!!!!!!!!",
"!!!!!!!!!!!!!AAGPHEPTPPzzJFIDAcmdzny!!!!!!!!!!!!",
"!!!!!!!!!!!!!CHASPALDEq<26fZMnngw4u9p!!!!!!!!!!!",
"!!!!!!!!!!!!MNBPnJTUGGq7ylgxjhxg9314r!!!!!!!!!!!",
"!!!!!!!!!!!vjmShyyRWFNrsnKHAhhpy62567!!!!!!!!!!!",
"!!!!!!!!!!!nZBAljaxLFNccAFUDast951,22!!!!!!!!!!!",
"!!!!!!!!!!!5pABnhnhAHnlMCDDaraa77<-<3!!!!!!!!!!!",
"!!!!!!!!!!!ueCjBkCxVmmkjsfdjci0977<<<!!!!!!!!!!!",
"!!!!!!!!!!!!nnkGUFkANAZllbxMe@#:79><2!!!!!!!!!!!",
"!!!!!!!!!!!!!MhdxlcMnkxnlhlb:::338336!!!!!!!!!!!",
"!!!!!!!!!!!!!96iiiNAjsglhfph3<1r;779!!!!!!!!!!!!",
"!!!!!!!!!!!!!!9wiflBksjpuuyr=87-,770!!!!!!!!!!!!",
"!!!!!!!!!!!!!!07wyknxdasr93:=&%::<<!!!!!!!!!!!!!",
"!!!!!!!!!!!!!!!079Oo$e870<&@=*@#=;*!!!!!!!!!!!!!",
"!!!!!!!!!!!!!!!!1>10yy<;:%$@@O%===!!!!!!!!!!!!!!",
"!!!!!!!!!!!!!!!!!+%<ly@#@@+@X@%@O&!!!!!!!!!!!!!!",
"!!!!!!!!!!!!!!!!!!!#X..oooo@#OX.!!!!!!!!!!!!!!!!",
"!!!!!!!!!!!!!!!!!!!!!+o.o@#%+!!!!!!!!!!!!!!!!!!!",
"!!!!!!!!!!!!!!!!!!!!!!o.. !!!!!!!!!!!!!!!!!!!!!!",
"!!!!!!!!!!!!!!!!!!!!!!!!!!!!!!!!!!!!!!!!!!!!!!!!",
"!!!!!!!!!!!!!!!!!!!!!!!!!!!!!!!!!!!!!!!!!!!!!!!!",
"!!!!!!!!!!!!!!!!!!!!!!!!!!!!!!!!!!!!!!!!!!!!!!!!",
"!!!!!!!!!!!!!!!!!!!!!!!!!!!!!!!!!!!!!!!!!!!!!!!!",
"!!!!!!!!!!!!!!!!!!!!!!!!!!!!!!!!!!!!!!!!!!!!!!!!",
"!!!!!!!!!!!!!!!!!!!!!!!!!!!!!!!!!!!!!!!!!!!!!!!!",
"!!!!!!!!!!!!!!!!!!!!!!!!!!!!!!!!!!!!!!!!!!!!!!!!",
"!!!!!!!!!!!!!!!!!!!!!!!!!!!!!!!!!!!!!!!!!!!!!!!!",
"!!!!!!!!!!!!!!!!!!!!!!!!!!!!!!!!!!!!!!!!!!!!!!!!",
"!!!!!!!!!!!!!!!!!!!!!!!!!!!!!!!!!!!!!!!!!!!!!!!!",
"!!!!!!!!!!!!!!!!!!!!!!!!!!!!!!!!!!!!!!!!!!!!!!!!"
};
